# xmcd
#
# Track frame offsets:
#	150
#	14379
#	27990
#	41196
#	53769
#	67845
#	82327
#	97925
#	111202
#	126937
#	141852
#	155056
#	169720
#	185967
#	200500
#	214547
#	230545
#	245334
#	260896
#	273864
#	289630
#	305083
#	320785
#	332535
#
# Disc length: 4623 seconds
#
# Revision: 1
# Processed by: cddbd v1.5.2PL0 Copyright (c) Steve Scherf et al.
# Submitted via: audiograbber 1.83.01
#
DISCID=6d120d18
DTITLE=Bessie Smith - Empress of the Blues Volume 2  CD C
DYEAR=1928
DGENRE=Blues
TTITLE0=Wasted Life Blues
TTITLE1=Dirty No Gooder Blues
TTITLE2=Blue Spirit Blues
TTITLE3=Worn Out Papa Blues
TTITLE4=You Don't Understand
TTITLE5=Don't Cry Baby
TTITLE6=Keep It to Yourself
TTITLE7=New Orleans Hop Scop Blues
TTITLE8=See if I Care - 3
TTITLE9=Baby Have Pity on Me
TTITLE10=On Revival Day
TTITLE11=Mean Mourners
TTITLE12=Hustlin Dan
TTITLE13=Black Mountain Blues
TTITLE14=In The House Blues
TTITLE15=Long Old Road
TTITLE16=Blue Blue
TTITLE17=Shipwreck Blues
TTITLE18=Need a Little Sugar in my Bowl
TTITLE19=Safety Mama
TTITLE20=Do Your Duty
TTITLE21=Gimme a Pigfoot
TTITLE22=Take Me For a Buggy Ride
TTITLE23=I'm Down in the Dumps
EXTD=
EXTT0=
EXTT1=
EXTT2=
EXTT3=
EXTT4=
EXTT5=
EXTT6=
EXTT7=
EXTT8=
EXTT9=
EXTT10=
EXTT11=
EXTT12=
EXTT13=
EXTT14=
EXTT15=
EXTT16=
EXTT17=
EXTT18=
EXTT19=
EXTT20=
EXTT21=
EXTT22=
EXTT23=
PLAYORDER=
